<svg xmlns="http://www.w3.org/2000/svg" width="46" height="46" viewBox="0 0 46 46"><defs><style>.a{fill:#ececec;}.b{fill:#0c66b4;}</style></defs><g transform="translate(21923 24172)"><circle class="a" cx="23" cy="23" r="23" transform="translate(-21923 -24172)"/><g transform="translate(-21913 -24162)"><path class="b" d="M9.351,14.191H6.006a.363.363,0,0,0-.257.107L4.4,15.648h-.28a1.093,1.093,0,1,0,0,.728h.431a.363.363,0,0,0,.257-.107l1.35-1.35H9.351a1.082,1.082,0,0,0,1.745.452l1.484.826a1.079,1.079,0,0,0-.018.18,1.093,1.093,0,1,0,2.185,0,1.079,1.079,0,0,0-.018-.18l1.484-.826a1.083,1.083,0,0,0,.719.277A1.09,1.09,0,0,0,17.3,13.53V11.939A1.089,1.089,0,1,0,16.213,10.1l-1.484-.826a1.071,1.071,0,0,0,.018-.179,1.093,1.093,0,1,0-2.185,0,1.079,1.079,0,0,0,.018.18L11.1,10.1a1.082,1.082,0,0,0-1.745.452H6.157L4.807,9.2a.363.363,0,0,0-.257-.107H4.118a1.093,1.093,0,1,0,0,.728H4.4l1.35,1.35a.363.363,0,0,0,.257.107H9.351a1.092,1.092,0,0,0,.661.661v.431H4.118a1.093,1.093,0,1,0,0,.728h5.894v.431A1.092,1.092,0,0,0,9.351,14.191ZM3.093,16.377a.364.364,0,1,1,.364-.364A.365.365,0,0,1,3.093,16.377Zm0-6.556a.364.364,0,1,1,.364-.364A.365.365,0,0,1,3.093,9.821Zm0,3.278a.364.364,0,1,1,.364-.364A.365.365,0,0,1,3.093,13.1Zm7.284,1.821a.364.364,0,1,1,.364-.364A.365.365,0,0,1,10.377,14.92Zm.719-3.19,1.484.826a.894.894,0,0,0,0,.359L11.1,13.74a1.1,1.1,0,0,0-.355-.21V11.939a1.077,1.077,0,0,0,.355-.209Zm5.117,2.01-1.484-.826a.894.894,0,0,0,0-.359l1.484-.826a1.1,1.1,0,0,0,.355.21V13.53A1.077,1.077,0,0,0,16.213,13.74Zm-4.762.636,1.484-.826a1.1,1.1,0,0,0,.355.21v1.591a1.085,1.085,0,0,0-.355.21l-1.484-.826a.9.9,0,0,0,0-.359Zm2.2-2.006a.364.364,0,1,1-.364.364A.365.365,0,0,1,13.654,12.37Zm.364,1.39a1.084,1.084,0,0,0,.355-.21l1.484.826a.894.894,0,0,0,0,.359l-1.484.826a1.1,1.1,0,0,0-.355-.21Zm1.839-2.667-1.484.826a1.1,1.1,0,0,0-.355-.21V10.118a1.085,1.085,0,0,0,.355-.21l1.484.826a.9.9,0,0,0,0,.359Zm-2.568.616a1.085,1.085,0,0,0-.355.21l-1.484-.826a.894.894,0,0,0,0-.359l1.484-.826a1.1,1.1,0,0,0,.355.21Zm.364,5.032a.364.364,0,1,1,.364-.364A.365.365,0,0,1,13.654,16.741Zm3.278-1.821a.364.364,0,1,1,.364-.364A.365.365,0,0,1,16.932,14.92Zm0-4.37a.364.364,0,1,1-.364.364A.365.365,0,0,1,16.932,10.549ZM13.654,8.728a.364.364,0,1,1-.364.364A.365.365,0,0,1,13.654,8.728Zm-3.278,1.821a.364.364,0,1,1-.364.364A.365.365,0,0,1,10.377,10.549Z" transform="translate(0 -3.814)"/><path class="b" d="M16.48,23.852h5.827a.364.364,0,0,0,.364-.364V20.939h4.735a.364.364,0,0,0,.364-.364V16.2h2.549a.364.364,0,0,0,.348-.473l-1.816-5.81a8.189,8.189,0,0,0-8.675-7.906A8.227,8.227,0,0,0,13.769,5.81l.613.393a7.5,7.5,0,0,1,5.836-3.461,7.462,7.462,0,0,1,7.906,7.289.348.348,0,0,0,.051.174l1.647,5.271H27.406a.364.364,0,0,0-.364.364V17.3H25.949A1.094,1.094,0,0,1,24.856,16.2h-.728a1.823,1.823,0,0,0,1.821,1.821h1.093V20.21H22.307a.364.364,0,0,0-.364.364v2.549h-5.1v-.352a16.842,16.842,0,0,0-2.562-8.713,7.4,7.4,0,0,1-.833-1.954l-.7.186a8.128,8.128,0,0,0,.915,2.146,16.117,16.117,0,0,1,2.456,8.335v.716a.364.364,0,0,0,.364.364Z" transform="translate(-6.832 0)"/></g></g></svg>