<svg xmlns="http://www.w3.org/2000/svg" width="46" height="46" viewBox="0 0 46 46"><defs><style>.a{fill:#ececec;}.b{fill:#0c66b4;}</style></defs><g transform="translate(21321 24179)"><circle class="a" cx="23" cy="23" r="23" transform="translate(-21321 -24179)"/><g transform="translate(-21310.002 -24168.48)"><path class="b" d="M19.271,6.929a5.707,5.707,0,0,0,.059-.817A5.639,5.639,0,0,0,8.5,3.928,3.628,3.628,0,0,0,3.007,8.077a4.838,4.838,0,0,0,.067,8.982.4.4,0,0,0,.292-.751A4.032,4.032,0,0,1,3.657,8.7.4.4,0,0,0,3.9,8.137a2.777,2.777,0,0,1-.279-1.219A2.822,2.822,0,0,1,8.4,4.889a.4.4,0,0,0,.665-.175,4.833,4.833,0,0,1,9.328,2.518.4.4,0,0,0,.086.355.4.4,0,0,0,.338.139c.037,0,.07,0,.108,0a4.43,4.43,0,0,1,1.834,8.465.4.4,0,1,0,.333.733,5.236,5.236,0,0,0-1.823-9.993Zm0,0" transform="translate(0 0)"/><path class="b" d="M102.82,176.355h-14.5a.4.4,0,0,0-.4.4v4.028a.4.4,0,0,0,.4.4h14.5a.4.4,0,0,0,.4-.4v-4.028A.4.4,0,0,0,102.82,176.355Zm-.4,4.028H88.724V177.16h13.694Zm0,0" transform="translate(-83.491 -167.021)"/><path class="b" d="M343.918,200.355h.806v.806h-.806Zm0,0" transform="translate(-326.602 -189.812)"/><path class="b" d="M311.918,200.355h.806v.806h-.806Zm0,0" transform="translate(-296.213 -189.812)"/><path class="b" d="M279.918,200.355h.806v.806h-.806Zm0,0" transform="translate(-265.824 -189.812)"/><path class="b" d="M247.918,200.355h.806v.806h-.806Zm0,0" transform="translate(-235.435 -189.812)"/><path class="b" d="M215.918,200.355h.806v.806h-.806Zm0,0" transform="translate(-205.046 -189.812)"/><path class="b" d="M343.918,232.355h.806v.806h-.806Zm0,0" transform="translate(-326.602 -220.201)"/><path class="b" d="M311.918,232.355h.806v.806h-.806Zm0,0" transform="translate(-296.213 -220.201)"/><path class="b" d="M279.918,232.355h.806v.806h-.806Zm0,0" transform="translate(-265.824 -220.201)"/><path class="b" d="M247.918,232.355h.806v.806h-.806Zm0,0" transform="translate(-235.435 -220.201)"/><path class="b" d="M215.918,232.355h.806v.806h-.806Zm0,0" transform="translate(-205.046 -220.201)"/><path class="b" d="M183.918,200.355h.806v.806h-.806Zm0,0" transform="translate(-174.657 -189.812)"/><path class="b" d="M183.918,232.355h.806v.806h-.806Zm0,0" transform="translate(-174.657 -220.201)"/><path class="b" d="M121.126,202.772a1.208,1.208,0,1,0-1.208-1.208A1.208,1.208,0,0,0,121.126,202.772Zm0-1.611a.4.4,0,1,1-.4.4A.4.4,0,0,1,121.126,201.161Zm0,0" transform="translate(-113.879 -189.812)"/><path class="b" d="M102.82,280.355h-14.5a.4.4,0,0,0-.4.4v4.028a.4.4,0,0,0,.4.4h14.5a.4.4,0,0,0,.4-.4v-4.028A.4.4,0,0,0,102.82,280.355Zm-.4,4.028H88.724v-3.222h13.694Zm0,0" transform="translate(-83.491 -265.785)"/><path class="b" d="M343.918,304.355h.806v.806h-.806Zm0,0" transform="translate(-326.602 -288.576)"/><path class="b" d="M311.918,304.355h.806v.806h-.806Zm0,0" transform="translate(-296.213 -288.576)"/><path class="b" d="M279.918,304.355h.806v.806h-.806Zm0,0" transform="translate(-265.824 -288.576)"/><path class="b" d="M247.918,304.355h.806v.806h-.806Zm0,0" transform="translate(-235.435 -288.576)"/><path class="b" d="M215.918,304.355h.806v.806h-.806Zm0,0" transform="translate(-205.046 -288.576)"/><path class="b" d="M343.918,336.355h.806v.806h-.806Zm0,0" transform="translate(-326.602 -318.965)"/><path class="b" d="M311.918,336.355h.806v.806h-.806Zm0,0" transform="translate(-296.213 -318.965)"/><path class="b" d="M279.918,336.355h.806v.806h-.806Zm0,0" transform="translate(-265.824 -318.965)"/><path class="b" d="M247.918,336.355h.806v.806h-.806Zm0,0" transform="translate(-235.435 -318.965)"/><path class="b" d="M215.918,336.355h.806v.806h-.806Zm0,0" transform="translate(-205.046 -318.965)"/><path class="b" d="M183.918,304.355h.806v.806h-.806Zm0,0" transform="translate(-174.657 -288.576)"/><path class="b" d="M183.918,336.355h.806v.806h-.806Zm0,0" transform="translate(-174.657 -318.965)"/><path class="b" d="M121.126,306.772a1.208,1.208,0,1,0-1.208-1.208A1.208,1.208,0,0,0,121.126,306.772Zm0-1.611a.4.4,0,1,1-.4.4A.4.4,0,0,1,121.126,305.161Zm0,0" transform="translate(-113.879 -288.576)"/><path class="b" d="M102.82,384.355h-14.5a.4.4,0,0,0-.4.4v4.028a.4.4,0,0,0,.4.4h14.5a.4.4,0,0,0,.4-.4v-4.028A.4.4,0,0,0,102.82,384.355Zm-.4,4.028H88.724v-3.222h13.694Zm0,0" transform="translate(-83.491 -364.549)"/><path class="b" d="M343.918,408.355h.806v.806h-.806Zm0,0" transform="translate(-326.602 -387.34)"/><path class="b" d="M311.918,408.355h.806v.806h-.806Zm0,0" transform="translate(-296.213 -387.34)"/><path class="b" d="M279.918,408.355h.806v.806h-.806Zm0,0" transform="translate(-265.824 -387.34)"/><path class="b" d="M247.918,408.355h.806v.806h-.806Zm0,0" transform="translate(-235.435 -387.34)"/><path class="b" d="M215.918,408.355h.806v.806h-.806Zm0,0" transform="translate(-205.046 -387.34)"/><path class="b" d="M343.918,440.355h.806v.806h-.806Zm0,0" transform="translate(-326.602 -417.729)"/><path class="b" d="M311.918,440.355h.806v.806h-.806Zm0,0" transform="translate(-296.213 -417.729)"/><path class="b" d="M279.918,440.355h.806v.806h-.806Zm0,0" transform="translate(-265.824 -417.729)"/><path class="b" d="M247.918,440.355h.806v.806h-.806Zm0,0" transform="translate(-235.435 -417.729)"/><path class="b" d="M215.918,440.355h.806v.806h-.806Zm0,0" transform="translate(-205.046 -417.729)"/><path class="b" d="M183.918,408.355h.806v.806h-.806Zm0,0" transform="translate(-174.657 -387.34)"/><path class="b" d="M183.918,440.355h.806v.806h-.806Zm0,0" transform="translate(-174.657 -417.729)"/><path class="b" d="M121.126,410.772a1.208,1.208,0,1,0-1.208-1.208A1.208,1.208,0,0,0,121.126,410.772Zm0-1.611a.4.4,0,1,1-.4.4A.4.4,0,0,1,121.126,409.161Zm0,0" transform="translate(-113.879 -387.34)"/></g></g></svg>