<svg xmlns="http://www.w3.org/2000/svg" width="46" height="46" viewBox="0 0 46 46"><defs><style>.a{fill:#ececec;}.b{fill:#0c66b4;}</style></defs><g transform="translate(21923 24422)"><circle class="a" cx="23" cy="23" r="23" transform="translate(-21923 -24422)"/><g transform="translate(-21911.951 -24409)"><path class="b" d="M15.837,0H7.409A1.458,1.458,0,0,0,5.951,1.459V18.574a1.457,1.457,0,0,0,1.458,1.458h8.428a1.458,1.458,0,0,0,1.458-1.458V1.459A1.459,1.459,0,0,0,15.837,0ZM9.543.886H13.7c.105,0,.191.157.191.351s-.085.352-.191.352H9.543c-.106,0-.19-.158-.19-.352S9.437.886,9.543.886Zm2.08,17.705a.931.931,0,1,1,.929-.931A.932.932,0,0,1,11.624,18.591ZM16.2,15.4H7.044V2.462H16.2V15.4Z" transform="translate(0)"/></g></g></svg>