<svg xmlns="http://www.w3.org/2000/svg" width="21.003" height="21.003" viewBox="0 0 21.003 21.003"><defs><style>.a{fill:#686868;}</style></defs><path class="a" d="M18.753,2.25H2.25A2.25,2.25,0,0,0,0,4.5V21a2.25,2.25,0,0,0,2.25,2.25H8.685V16.113H5.731V12.752H8.685V10.19c0-2.914,1.735-4.523,4.391-4.523a17.893,17.893,0,0,1,2.6.227v2.86H14.213a1.681,1.681,0,0,0-1.895,1.816v2.182h3.225l-.516,3.361H12.318v7.141h6.435A2.25,2.25,0,0,0,21,21V4.5a2.25,2.25,0,0,0-2.25-2.25Z" transform="translate(0 -2.25)"/></svg>