<svg xmlns="http://www.w3.org/2000/svg" width="21.454" height="21.454" viewBox="0 0 21.454 21.454"><defs><style>.a{fill:#686868;}</style></defs><path class="a" d="M19.922,2.25H1.528A1.539,1.539,0,0,0,0,3.8v18.36A1.539,1.539,0,0,0,1.528,23.7H19.922a1.543,1.543,0,0,0,1.532-1.547V3.8A1.543,1.543,0,0,0,19.922,2.25ZM6.484,20.639H3.3V10.4H6.489V20.639ZM4.894,9A1.844,1.844,0,1,1,6.738,7.159,1.845,1.845,0,0,1,4.894,9ZM18.4,20.639h-3.18v-4.98c0-1.188-.024-2.715-1.652-2.715-1.657,0-1.911,1.293-1.911,2.629v5.067H8.481V10.4h3.051v1.4h.043a3.349,3.349,0,0,1,3.012-1.652c3.218,0,3.817,2.121,3.817,4.88Z" transform="translate(0 -2.25)"/></svg>