<svg xmlns="http://www.w3.org/2000/svg" width="46" height="46" viewBox="0 0 46 46"><defs><style>.a{fill:#ececec;}.b{fill:#0c66b4;}</style></defs><g transform="translate(21923 24110)"><circle class="a" cx="23" cy="23" r="23" transform="translate(-21923 -24110)"/><g transform="translate(-21920 -24160)"><path class="b" d="M30.511,64H9.347A1.348,1.348,0,0,0,8,65.347V81.124a1.348,1.348,0,0,0,1.347,1.347H30.511a1.348,1.348,0,0,0,1.347-1.347V65.347A1.348,1.348,0,0,0,30.511,64Zm.577,17.124a.578.578,0,0,1-.577.577H9.347a.578.578,0,0,1-.577-.577V65.347a.578.578,0,0,1,.577-.577H30.511a.578.578,0,0,1,.577.577Z"/><path class="b" d="M216.2,173.339a.385.385,0,0,0,.388,0l3.848-2.309a.385.385,0,0,0,0-.66l-3.848-2.309a.385.385,0,0,0-.583.33V173A.385.385,0,0,0,216.2,173.339Zm.574-4.273,2.715,1.629-2.715,1.629Z" transform="translate(-197.995 -98.999)"/><path class="b" d="M157,130a5,5,0,1,0-5-5A5,5,0,0,0,157,130Zm0-9.235A4.233,4.233,0,1,1,152.77,125,4.233,4.233,0,0,1,157,120.77Z" transform="translate(-137.074 -53.306)"/><path class="b" d="M140.314,360.77a.385.385,0,0,1-.385.385h-9.62a.385.385,0,0,1-.77,0h-1.154a.385.385,0,0,1,0-.77h1.154a.385.385,0,0,1,.77,0h9.62A.385.385,0,0,1,140.314,360.77Z" transform="translate(-114.228 -281.762)"/></g></g></svg>