<svg xmlns="http://www.w3.org/2000/svg" width="46" height="46" viewBox="0 0 46 46"><defs><style>.a{fill:#ececec;}.b{fill:#0c66b4;}</style></defs><g transform="translate(21321 24110)"><circle class="a" cx="23" cy="23" r="23" transform="translate(-21321 -24110)"/><g transform="translate(-21307 -24096.006)"><g transform="translate(0.827 6.841)"><path class="b" d="M28.025,190.488a.306.306,0,0,0-.253-.167l-2.58-.172a.3.3,0,0,0-.306.194l-1.86,4.754a.307.307,0,0,0,.47.357L25.04,194.3l.9.18a.307.307,0,0,0,.347-.191,19.932,19.932,0,0,1,1.727-3.495A.307.307,0,0,0,28.025,190.488Zm-2.219,3.336-.781-.156a.309.309,0,0,0-.244.056l-.791.593,1.385-3.541,1.852.123A20.714,20.714,0,0,0,25.806,193.824Z" transform="translate(-23.005 -190.148)"/></g><g transform="translate(6.201 12.529)"><path class="b" d="M177.882,351.254l-.172-2.581a.307.307,0,0,0-.469-.24,19.942,19.942,0,0,1-3.495,1.727.306.306,0,0,0-.191.347l.18.9-1.158,1.544a.307.307,0,0,0,.245.491.324.324,0,0,0,.112-.021l4.754-1.86A.307.307,0,0,0,177.882,351.254Zm-4.168,1.2.593-.791a.307.307,0,0,0,.055-.244l-.156-.781a20.7,20.7,0,0,0,2.925-1.421l.124,1.852Z" transform="translate(-172.515 -348.387)"/></g><g transform="translate(3.927 9.208)"><path class="b" d="M114.23,256.007h-2.067a.307.307,0,0,0-.268.158l-2.594,4.661a.307.307,0,0,0,.268.456.3.3,0,0,0,.159-.044l4.661-2.821a.306.306,0,0,0,.148-.262v-1.84A.307.307,0,0,0,114.23,256.007Zm-.307,1.974-3.524,2.133,1.944-3.493h1.58Z" transform="translate(-109.263 -256.007)"/></g><g transform="translate(3.514 0.011)"><g transform="translate(0 0)"><path class="b" d="M112.635.414a.307.307,0,0,0-.28-.28c-.1-.008-10.2-.713-14.574,10.738a.306.306,0,0,0,.07.326l1.458,1.458a.307.307,0,0,0,.486-.069l1.461-2.653h1.579V11.3l-2.669,1.685a.307.307,0,0,0-.053.476l1.458,1.458a.306.306,0,0,0,.217.09.3.3,0,0,0,.109-.02C113.349,10.616,112.644.515,112.635.414Zm-1.609,5.442c-1.076,2.663-3.539,6.283-9.163,8.488L100.818,13.3l2.487-1.57a.307.307,0,0,0,.143-.259V9.628a.307.307,0,0,0-.307-.307h-2.067a.307.307,0,0,0-.269.159l-1.352,2.454-1.028-1.029C102.263,1.114,110.444.714,112.034.736A13.593,13.593,0,0,1,111.026,5.856Z" transform="translate(-97.761 -0.123)"/></g></g><g transform="translate(0 12.775)"><g transform="translate(0)"><path class="b" d="M5.254,356a.306.306,0,0,0-.277-.12.307.307,0,0,0-.12-.277,1.918,1.918,0,0,0-1.638-.319,2.063,2.063,0,0,0-1.378,1.15L.028,360.427a.307.307,0,0,0,.406.406l3.989-1.814a2.062,2.062,0,0,0,1.15-1.378A1.918,1.918,0,0,0,5.254,356Zm-.275,1.487a1.453,1.453,0,0,1-.809.97L.924,359.936,2.4,356.69a1.452,1.452,0,0,1,.97-.809,1.387,1.387,0,0,1,.341-.043,1.294,1.294,0,0,1,.548.12l-.292.517a.307.307,0,0,0,.418.418L4.9,356.6A1.329,1.329,0,0,1,4.979,357.49Z" transform="translate(0 -355.225)"/></g></g><g transform="translate(11.623 0.006)"><g transform="translate(0 0)"><path class="b" d="M330.125.3a.307.307,0,0,0-.28-.28,13.7,13.7,0,0,0-6.307,1.315.307.307,0,0,0-.089.5L328.314,6.7a.307.307,0,0,0,.217.09.325.325,0,0,0,.054,0,.307.307,0,0,0,.224-.174A13.69,13.69,0,0,0,330.125.3Zm-1.694,5.644L324.2,1.715A13.649,13.649,0,0,1,329.524.623,13.613,13.613,0,0,1,328.431,5.947Z" transform="translate(-323.359 -0.006)"/></g></g><g transform="translate(9.031 4.091)"><path class="b" d="M255.76,114.41a2.644,2.644,0,1,0,0,3.741A2.648,2.648,0,0,0,255.76,114.41Zm-.434,3.307a2.031,2.031,0,1,1,0-2.874A2.034,2.034,0,0,1,255.326,117.717Z" transform="translate(-251.245 -113.636)"/></g><g transform="translate(10.2 5.26)"><path class="b" d="M285.842,148.242a.863.863,0,1,1,0-1.22.307.307,0,1,0,.434-.434,1.475,1.475,0,1,0,0,2.087.307.307,0,0,0-.434-.434Z" transform="translate(-283.757 -146.157)"/></g></g></g></svg>