<svg xmlns="http://www.w3.org/2000/svg" width="46" height="46" viewBox="0 0 46 46"><defs><style>.a{fill:#ececec;}.b{fill:#0c66b4;}</style></defs><g transform="translate(21923 24237)"><circle class="a" cx="23" cy="23" r="23" transform="translate(-21923 -24237)"/><g transform="translate(-21913 -24227.004)"><path class="b" d="M11.271,7H4.6A1.116,1.116,0,0,0,3.483,8.113v2.9L2.074,14.525A1.2,1.2,0,0,0,2,14.933v3.812a1.841,1.841,0,0,0,.371,1.113l.245.326a1.871,1.871,0,0,1,.345,1.435l-.586,5.366a.375.375,0,0,0,.093.289.371.371,0,0,0,.274.122H6.821a.364.364,0,0,0,.278-.126.359.359,0,0,0,.089-.289l-.694-5.659a.378.378,0,0,1,.059-.274l.219-.326h4.5a1.116,1.116,0,0,0,1.113-1.113V8.113A1.116,1.116,0,0,0,11.271,7ZM5.816,18.018l.2.2a.931.931,0,0,1,.115.13s0,0,.007,0l0,0a1.477,1.477,0,0,1,.315.909v.156a1.481,1.481,0,0,1-.248.823l-.263.393a1.1,1.1,0,0,0-.174.794L6.4,26.655H3.157l.538-4.932a2.622,2.622,0,0,0-.486-1.984l-.245-.326a1.119,1.119,0,0,1-.223-.668V14.933a.366.366,0,0,1,.026-.141L3.483,13v2.373A.748.748,0,0,0,3.7,15.9l.43.43a.75.75,0,0,0,.909.111l.49-.3.671-.4a.3.3,0,0,1,.36.048.292.292,0,0,1,.045.367L5.76,17.566A.376.376,0,0,0,5.816,18.018Zm.786-.263c-.019-.019-.037-.037-.056-.059l.694-1.153a1.044,1.044,0,0,0-.156-1.276,1.069,1.069,0,0,0-1.272-.156l-.1.063V9.225h4.45v8.53Zm5.04,1.854a.371.371,0,0,1-.371.371H7.114a2.171,2.171,0,0,0,.078-.56v-.156a2.251,2.251,0,0,0-.141-.768H10.53a.371.371,0,0,0,.371-.371V8.854a.371.371,0,0,0-.371-.371H5.338a.371.371,0,0,0-.371.371v6.761l-.312.189-.43-.426V8.113A.371.371,0,0,1,4.6,7.742h6.675a.371.371,0,0,1,.371.371Z" transform="translate(0 -3.143)"/><path class="b" d="M15.483,17a1.483,1.483,0,1,0,1.483,1.483A1.483,1.483,0,0,0,15.483,17Zm0,2.225a.742.742,0,1,1,.742-.742A.742.742,0,0,1,15.483,19.225Z" transform="translate(-7.55 -9.434)"/><path class="b" d="M41.217,14.218a.742.742,0,1,0,1.049,0A.742.742,0,0,0,41.217,14.218Z" transform="translate(-24.537 -7.547)"/><path class="b" d="M41.9,10.653a2.228,2.228,0,0,0-3.147,0l.524.524a1.486,1.486,0,0,1,2.1,0Z" transform="translate(-23.125 -5.032)"/><path class="b" d="M41.174,7.086a3.709,3.709,0,0,0-5.245,0l.524.524a2.967,2.967,0,0,1,4.2,0Z" transform="translate(-21.346 -2.514)"/><path class="b" d="M39.918,4.048l.525-.525a5.2,5.2,0,0,0-7.343,0l.524.524a4.455,4.455,0,0,1,6.294,0Z" transform="translate(-19.566)"/><path class="b" d="M36.371,27.338h4.45a.371.371,0,0,0,.371-.371v-2.6A.371.371,0,0,0,40.821,24h-4.45a.371.371,0,0,0-.371.371v2.6A.371.371,0,0,0,36.371,27.338Zm.371-2.6H40.45V26.6H36.742Z" transform="translate(-21.391 -13.838)"/><path class="b" d="M42.384,26.675H40.159V21.113A1.116,1.116,0,0,0,39.046,20H33.113A1.116,1.116,0,0,0,32,21.113V34.463a1.116,1.116,0,0,0,1.113,1.113h5.934a1.116,1.116,0,0,0,1.113-1.113V29.642h2.225a.744.744,0,0,0,.742-.742V27.417A.744.744,0,0,0,42.384,26.675Zm-2.967,7.788a.371.371,0,0,1-.371.371H33.113a.371.371,0,0,1-.371-.371V21.113a.371.371,0,0,1,.371-.371h5.934a.371.371,0,0,1,.371.371v5.563H38.208A2.592,2.592,0,0,0,35.664,25.6a2.595,2.595,0,1,0,2.544,4.046h1.209ZM42.384,28.9H38a.362.362,0,0,0-.319.185,1.854,1.854,0,1,1-1.906-2.759,2.036,2.036,0,0,1,.3-.022,1.854,1.854,0,0,1,1.61.927.362.362,0,0,0,.319.185h4.38Z" transform="translate(-18.874 -11.322)"/><path class="b" d="M38,51h.742v.742H38Z" transform="translate(-22.649 -30.825)"/><path class="b" d="M42,51h.742v.742H42Z" transform="translate(-25.166 -30.825)"/><path class="b" d="M46,51h.742v.742H46Z" transform="translate(-27.682 -30.825)"/><path class="b" d="M38,55h.742v.742H38Z" transform="translate(-22.649 -33.342)"/><path class="b" d="M42,55h.742v.742H42Z" transform="translate(-25.166 -33.342)"/><path class="b" d="M46,55h.742v.742H46Z" transform="translate(-27.682 -33.342)"/></g></g></svg>