<svg xmlns="http://www.w3.org/2000/svg" width="46" height="46" viewBox="0 0 46 46"><defs><style>.a{fill:#ececec;}.b{fill:#0c66b4;}</style></defs><g transform="translate(21321 24272)"><circle class="a" cx="23" cy="23" r="23" transform="translate(-21321 -24272)"/><path class="b" d="M28.793,64.186a2.695,2.695,0,0,0-4.525-1.978,1.509,1.509,0,0,0-2.059,2.056l-4.22,4.22V62.171h2.7a.422.422,0,0,0,0-.844h-2.7V59.173a.422.422,0,1,0-.844,0v2.155h-10a.422.422,0,0,0,0,.844H8.983l-5,2.885-.015.009V62.171H5.456a.422.422,0,0,0,0-.844H3.966V59.173a.422.422,0,0,0-.844,0v2.155H.422a.422.422,0,0,0,0,.844h2.7V77.516H.422a.422.422,0,1,0,0,.844h2.7v2.155a.422.422,0,1,0,.844,0V78.359H14.444a.422.422,0,1,0,0-.844H12.128l1.779-1.026a.987.987,0,0,0,.643.24,1.007,1.007,0,0,0,.339-.059l2.257-.8v1.65H16.131a.422.422,0,1,0,0,.844h1.014v2.155a.422.422,0,1,0,.844,0V78.359h2.7a.422.422,0,1,0,0-.844h-2.7v-1.95l.75-.267h0l.04-.017.009,0,.028-.016.012-.008.025-.018.01-.007.031-.028h0l7.124-7.124a1.509,1.509,0,0,0,2.056-2.059,2.674,2.674,0,0,0,.717-1.83Zm-1.386-1.31a1.851,1.851,0,0,1,.108,2.5l-2.608-2.608A1.855,1.855,0,0,1,27.407,62.876ZM16.2,75.308l-1.222-1.222.719-2.019a.966.966,0,0,1,.77.144c.161.161.2.51.11,1.008,0,0,0,0,0,.007s0,.025,0,.037,0,.01,0,.015,0,.022,0,.033a.422.422,0,0,0,.5.4c.5-.089.847-.051,1.008.11a.966.966,0,0,1,.144.77Zm2.472-2.086a1.337,1.337,0,0,0-.66-.351l3.762-3.762a.422.422,0,1,0-.6-.6l-3.762,3.762a1.279,1.279,0,0,0-1.012-1.01L22.766,64.9l1.011,1.011-1.226,1.226a.422.422,0,1,0,.6.6l1.226-1.226,1.011,1.011-6.365,6.365a1.336,1.336,0,0,0-.351-.66ZM17.145,62.171v2.9l-.012-.007-5-2.89ZM3.968,66.539a.873.873,0,0,1,.435-.751l5.722-3.3a.869.869,0,0,1,.867,0l5.719,3.3a.871.871,0,0,1,.434.752v2.783l-1.86,1.86V68.1a1.716,1.716,0,0,0-.854-1.482l-3.018-1.744a1.716,1.716,0,0,0-1.711,0L6.683,66.617A1.716,1.716,0,0,0,5.826,68.1v3.486a1.715,1.715,0,0,0,.854,1.482L9.7,74.811a1.716,1.716,0,0,0,1.711,0l3.019-1.742.016-.01-.832,2.335a1.009,1.009,0,0,0-.058.324L10.987,77.2a.871.871,0,0,1-.868,0L4.4,73.9a.869.869,0,0,1-.432-.752ZM14.442,68.1v3.486a.87.87,0,0,1-.435.751l-3.019,1.742a.87.87,0,0,1-.867,0L7.1,72.336a.87.87,0,0,1-.433-.752V68.1a.87.87,0,0,1,.435-.751l3.019-1.742a.87.87,0,0,1,.868,0l3.018,1.744A.87.87,0,0,1,14.442,68.1ZM3.966,77.516v-2.9l.012.007,5,2.89H3.966Zm10.639-1.64a.155.155,0,0,1-.2-.2l.254-.712.656.656Zm12.629-8.644a.667.667,0,0,1-.942,0l-.013-.013L23.064,64l-.013-.013a.666.666,0,0,1,.942-.942l3.241,3.241a.667.667,0,0,1,0,.942Z" transform="translate(-21312 -24318.752)"/></g></svg>