<svg xmlns="http://www.w3.org/2000/svg" width="46" height="46" viewBox="0 0 46 46"><defs><style>.a{fill:#ececec;}.b{fill:#0c66b4;}</style></defs><g transform="translate(21923 24358)"><circle class="a" cx="23" cy="23" r="23" transform="translate(-21923 -24358)"/><g transform="translate(-21910 -24344)"><path class="b" d="M117.469,185.293a.329.329,0,0,1-.214-.079l-2.139-1.821a.331.331,0,0,1,0-.5l2.139-1.821a.33.33,0,1,1,.428.5l-1.843,1.57,1.843,1.57a.331.331,0,0,1-.215.582Zm0,0" transform="translate(-109.569 -172.442)"/><path class="b" d="M250.038,185.293a.331.331,0,0,1-.215-.582l1.843-1.57-1.843-1.57a.33.33,0,1,1,.428-.5l2.139,1.821a.331.331,0,0,1,0,.5l-2.139,1.821A.329.329,0,0,1,250.038,185.293Zm0,0" transform="translate(-237.916 -172.442)"/><path class="b" d="M189.285,160.015a.337.337,0,0,1-.069-.007.331.331,0,0,1-.255-.392l1.333-6.329a.331.331,0,1,1,.647.136l-1.333,6.329A.331.331,0,0,1,189.285,160.015Zm0,0" transform="translate(-180.031 -145.799)"/><path class="b" d="M17.8,17.665H2.219A2.222,2.222,0,0,1,0,15.445V2.219A2.222,2.222,0,0,1,2.219,0H17.8a2.222,2.222,0,0,1,2.219,2.219V15.445A2.222,2.222,0,0,1,17.8,17.665ZM2.219.661A1.56,1.56,0,0,0,.661,2.219V15.445A1.56,1.56,0,0,0,2.219,17H17.8a1.56,1.56,0,0,0,1.558-1.558V2.219A1.56,1.56,0,0,0,17.8.661Zm0,0"/><path class="b" d="M19.691,98.751H.331a.331.331,0,0,1,0-.661H19.691a.331.331,0,0,1,0,.661Zm0,0" transform="translate(0 -93.458)"/><path class="b" d="M98.5,36.381a1.046,1.046,0,1,1,1.046-1.046A1.047,1.047,0,0,1,98.5,36.381Zm0-1.431a.385.385,0,1,0,.385.385A.385.385,0,0,0,98.5,34.95Zm0,0" transform="translate(-92.848 -32.67)"/><path class="b" d="M30.433,36.166a1.046,1.046,0,1,1,1.046-1.046A1.047,1.047,0,0,1,30.433,36.166Zm0-1.431a.385.385,0,1,0,.385.385A.386.386,0,0,0,30.433,34.735Zm0,0" transform="translate(-27.999 -32.465)"/><path class="b" d="M166.561,36.6a1.046,1.046,0,1,1,1.046-1.046A1.047,1.047,0,0,1,166.561,36.6Zm0-1.431a.385.385,0,1,0,.385.385A.385.385,0,0,0,166.561,35.165Zm0,0" transform="translate(-157.7 -32.875)"/></g></g></svg>