<svg xmlns="http://www.w3.org/2000/svg" width="46" height="46" viewBox="0 0 46 46"><defs><style>.a{fill:#ececec;}.b{fill:#0c66b4;}</style></defs><g transform="translate(21321 24351)"><circle class="a" cx="23" cy="23" r="23" transform="translate(-21321 -24351)"/><path class="b" d="M17.443.45H3.753A3.75,3.75,0,0,0,0,4.2V17.363a3.75,3.75,0,0,0,3.753,3.753H17.443A3.75,3.75,0,0,0,21.2,17.363V4.2A3.75,3.75,0,0,0,17.443.45ZM20.3,17.018a3.2,3.2,0,0,1-3.2,3.215H4.089A3.211,3.211,0,0,1,.883,17.027V4.539A3.211,3.211,0,0,1,4.089,1.333H17.1A3.206,3.206,0,0,1,20.3,4.539Zm-11.923-6.9,2.473,4.751c.044.071.018.141-.053.141H9.264a.173.173,0,0,1-.185-.115c-.565-1.166-1.139-2.332-1.731-3.586H7.33C6.8,12.5,6.218,13.742,5.652,14.908a.17.17,0,0,1-.159.1H4.036c-.088,0-.1-.071-.053-.124l2.42-4.61L4.063,5.608a.071.071,0,0,1,.053-.124H5.635a.139.139,0,0,1,.159.1C6.35,6.747,6.915,7.948,7.445,9.123h.018C7.975,7.957,8.54,6.747,9.088,5.59c.044-.071.071-.115.159-.115h1.422c.071,0,.1.053.053.124Zm2.906,1.44A3.455,3.455,0,0,1,14.828,7.9a3.916,3.916,0,0,1,.459.018V5.572a.088.088,0,0,1,.088-.088h1.4c.071,0,.088.026.088.071v8.108a6.291,6.291,0,0,0,.044.866c0,.053-.018.071-.071.1a5.261,5.261,0,0,1-2.261.512C12.656,15.146,11.287,13.963,11.287,11.56Zm4-2.261a1.336,1.336,0,0,0-.512-.088c-1.113,0-1.89.857-1.89,2.279,0,1.625.795,2.279,1.793,2.279a1.666,1.666,0,0,0,.609-.1V9.3Z" transform="translate(-21309 -24338.449)"/></g></svg>