<svg xmlns="http://www.w3.org/2000/svg" width="46" height="46" viewBox="0 0 46 46"><defs><style>.a{fill:#ececec;}.b{fill:#0c66b4;}</style></defs><g transform="translate(21923 24299)"><circle class="a" cx="23" cy="23" r="23" transform="translate(-21923 -24299)"/><g transform="translate(-21911.002 -24287)"><path class="b" d="M337.92,110.584a.313.313,0,0,0-.282-.3.124.124,0,0,0-.079.021l-1.052.683a.274.274,0,0,0,0,.464l1.052.683a.125.125,0,0,0,.079.021.313.313,0,0,0,.282-.3.19.19,0,0,0-.075-.162l-.729-.472.729-.472A.19.19,0,0,0,337.92,110.584Zm0,0" transform="translate(-321.338 -105.35)"/><path class="b" d="M382.207,85.367a.182.182,0,0,0-.174.1l-1.454,2.986a.186.186,0,0,0-.021.079.229.229,0,0,0,.232.219.208.208,0,0,0,.186-.1l1.458-2.986a.181.181,0,0,0,.017-.079A.237.237,0,0,0,382.207,85.367Zm0,0" transform="translate(-363.542 -81.55)"/><path class="b" d="M434.029,110.985l-1.052-.683a.125.125,0,0,0-.079-.021.313.313,0,0,0-.282.3.19.19,0,0,0,.075.162l.729.472-.729.472a.19.19,0,0,0-.075.162.313.313,0,0,0,.282.3.125.125,0,0,0,.079-.021l1.052-.683a.274.274,0,0,0,0-.464Zm0,0" transform="translate(-413.273 -105.35)"/><path class="b" d="M21.272,1.667h-7.22A2.6,2.6,0,0,0,11.63,0H6.788A2.6,2.6,0,0,0,4.2,2.592V5.534a1.093,1.093,0,0,0-.352,1.03l.19,1.048a.912.912,0,0,0,.408.636.986.986,0,0,0,.519.137v.186a4.076,4.076,0,0,0,1.512,2.856,6.173,6.173,0,0,0,.561.451v.562a.355.355,0,0,1-.29.349l-.023.005c-.006,0-.581.152-1.334.365H2.926a1,1,0,0,0-1,1.071l.007.095A3.21,3.21,0,0,0,.078,16.99V17L0,21.621a1.256,1.256,0,0,0,1.256,1.272h15.9a1.257,1.257,0,0,0,1.256-1.273L18.34,17s0-.009,0-.014a3.227,3.227,0,0,0-1.954-2.711l-.066-.03v-.018a1,1,0,0,0-1-1.071H13.033C12.28,12.947,11.7,12.8,11.7,12.8l-.023-.005a.355.355,0,0,1-.29-.349V11.88a6.2,6.2,0,0,0,.561-.452,4.9,4.9,0,0,0,1.3-1.8h2.179l-.381,1.536a.605.605,0,0,0,.259.659.6.6,0,0,0,.708-.027L18.834,9.63h2.438a1.6,1.6,0,0,0,1.6-1.6V3.27a1.6,1.6,0,0,0-1.6-1.6ZM13.458,6.114a1.447,1.447,0,0,1,.329-.069.433.433,0,0,1,.127.4l-.189,1.042c-.028.145-.083.18-.1.191a.327.327,0,0,1-.165.037ZM4.867,2.592A1.923,1.923,0,0,1,6.788.671h4.843a1.923,1.923,0,0,1,1.921,1.921V5.4a1.952,1.952,0,0,0-.574.193V3.551a1.334,1.334,0,0,0-1.333-1.333h-.906a1.37,1.37,0,0,0-.864.308L9.785,2.6a.91.91,0,0,1-1.152,0l-.089-.073a1.369,1.369,0,0,0-.864-.308H6.774A1.334,1.334,0,0,0,5.441,3.551V5.594A1.951,1.951,0,0,0,4.867,5.4ZM4.795,7.678c-.018-.011-.074-.046-.1-.189L4.5,6.445a.433.433,0,0,1,.127-.4,1.447,1.447,0,0,1,.329.068v1.6a.328.328,0,0,1-.165-.037Zm-2.967,14.3a.913.913,0,0,0,.033.243h-.6a.586.586,0,0,1-.586-.592l.076-4.607a2.462,2.462,0,0,1,1.24-1.96L2.4,20.807a.992.992,0,0,0,.069.3.915.915,0,0,0-.639.871Zm14.024-1.171.416-5.837a2.5,2.5,0,0,1,1.4,2.052l.076,4.606a.586.586,0,0,1-.586.593h-.6a.914.914,0,0,0-.761-1.149.987.987,0,0,0,.056-.266Zm.068,1.171a.243.243,0,0,1-.243.243H2.741a.243.243,0,0,1,0-.486H15.677A.243.243,0,0,1,15.92,21.979Zm-.355-8.043a.326.326,0,0,1,.087.248l-.469,6.576a.33.33,0,0,1-.328.305H3.4a.33.33,0,0,1-.328-.306L2.6,14.184a.329.329,0,0,1,.328-.352h12.4a.326.326,0,0,1,.241.1Zm-4.556-.775h-3.6a1.025,1.025,0,0,0,.295-.719v-.15a3.4,3.4,0,0,0,1.505.427,3.4,3.4,0,0,0,1.505-.427v.15a1.025,1.025,0,0,0,.295.719Zm.486-2.23a3.9,3.9,0,0,1-2.286,1.117,3.9,3.9,0,0,1-2.286-1.117A3.423,3.423,0,0,1,5.631,8.572V6.459h.013a.469.469,0,0,0,.468-.468V3.551a.663.663,0,0,1,.662-.662H7.68a.7.7,0,0,1,.44.157l.089.073a1.581,1.581,0,0,0,2,0l.089-.073a.7.7,0,0,1,.44-.157h.906a.663.663,0,0,1,.662.662v2.44a.469.469,0,0,0,.481.468V8.572A3.422,3.422,0,0,1,11.5,10.931ZM22.2,8.028a.933.933,0,0,1-.932.932H18.72a.335.335,0,0,0-.2.07l-2.782,2.137.443-1.79a.335.335,0,0,0-.325-.416H13.428a2.591,2.591,0,0,0,.03-.388V8.386a.986.986,0,0,0,.518-.137.913.913,0,0,0,.408-.639l.19-1.045a1.093,1.093,0,0,0-.352-1.03V2.592c0-.085,0-.17-.012-.254h7.062a.933.933,0,0,1,.932.932Zm0,0" transform="translate(0)"/><path class="b" d="M179,370.5a1.261,1.261,0,1,0-1.261-1.261A1.262,1.262,0,0,0,179,370.5Zm0-1.851a.59.59,0,1,1-.59.59A.591.591,0,0,1,179,368.647Zm0,0" transform="translate(-169.794 -351.523)"/></g></g></svg>