<svg xmlns="http://www.w3.org/2000/svg" width="434.347" height="353.844" viewBox="0 0 434.347 353.844"><defs><style>.a{fill:#e6e6e6;}.b{fill:#f2f2f2;}.c{fill:#ffb7b7;}.d{fill:#2f2e41;}.e{fill:#cbcbcb;}.f{fill:#fff;}.g{fill:#3f3d56;}.h{fill:#0c66b4;}</style></defs><g transform="translate(0)"><path class="a" d="M454.389,689.694a13.314,13.314,0,0,0,12.657,3.2c5.655-1.606,9.493-6.708,12.9-11.5l10.08-14.169-8.495,1.558c-6.109,1.12-12.369,2.3-17.69,5.5s-9.582,8.928-9.245,15.129" transform="translate(-327.077 -356.246)"/><path class="b" d="M441.592,717.717c1.49-5.08,2.988-10.229,5.618-14.859a24.939,24.939,0,0,1,9.739-9.962,21.753,21.753,0,0,1,7.162-2.33c.653-.092.76.924.109,1.017a20.677,20.677,0,0,0-11.5,5.656,33.107,33.107,0,0,0-7.447,12.308c-1.021,2.731-1.846,5.528-2.666,8.325a.527.527,0,0,1-.583.428.514.514,0,0,1-.428-.584Z" transform="translate(-322.176 -365.181)"/><path class="c" d="M704.124,402.935a6.812,6.812,0,0,1,8.4,6.215l23.305,6.552-9.509,8.236-20.673-7.484a6.849,6.849,0,0,1-1.519-13.518Z" transform="translate(-420.668 -254.985)"/><path class="c" d="M550.137,545.038h-6.793l-3.232-26.2h10.026Z" transform="translate(-206.793 -198.646)"/><path class="d" d="M793.666,729.817h-21.9v-.277a8.526,8.526,0,0,1,8.525-8.526h13.379Z" transform="translate(-448.589 -376.841)"/><path class="c" d="M614.639,545.038h-6.793l-3.232-26.2H614.64Z" transform="translate(-231.488 -198.646)"/><path class="d" d="M858.168,729.817h-21.9v-.277a8.526,8.526,0,0,1,8.525-8.525h13.379Z" transform="translate(-473.285 -376.841)"/><path class="d" d="M541.155,315.4l-10.007,69.312,2.493,73.027,15.027,1.2,4.7-65.492,11.961-36.518,7.032,52.056.289,48.757,15.516,1.2,5.412-102.505L589.6,311.854Z" transform="translate(-203.361 -119.399)"/><circle class="c" cx="15.83" cy="15.83" r="15.83" transform="translate(350.906 71.542)"/><path class="e" d="M815.7,342.618l-17.476,88.044s29.424,8.445,42.314.649,7.114-31.863,7.114-31.863L845.29,358.5l-4.362-10.356-3.7-8.549Z" transform="translate(-458.72 -230.806)"/><path class="d" d="M800.487,405.931l6.037-64.2-4.828,3.525-16.881,5.482-1.155,45.2-11.809,59.442s8.441,16.47,18.9-10.778Z" transform="translate(-448.623 -231.623)"/><path class="d" d="M528.325,199.768l-8.124-6.761-18.259,39.664-20.375-4.463-.963,12.033,29.521,11.683,20.117-28.007Z" transform="translate(-184.009 -73.896)"/><path class="d" d="M609.144,227.259l2.275-52.254,8.373,6.484,14.954,4.168-2.193,41.6,3.155,64.552-15.678,4.965-4.4-40.732Z" transform="translate(-233.223 -67.004)"/><path class="c" d="M858.794,476.325a6.813,6.813,0,0,1,9.065-5.191l15.364-18.708,3.721,12.017-15.161,15.923a6.849,6.849,0,0,1-12.989-4.041Z" transform="translate(-481.866 -274.006)"/><path class="d" d="M632.318,198.066l10.012-5.8,25.192,49.748L642.961,276.12l-14.009-11.2,17.011-22.183-15.5-23.826Z" transform="translate(-240.807 -73.613)"/><path class="d" d="M846.622,278.93l.767-1.545-3.862-1.919s-4.26-6.931-11.968-4.984-11.177,3.114-11.177,3.114l-3.852,1.938,1.933,1.923L815,278.625l2.317,1.151-2.7,1.55,1.451,7.943s2.41-6.025,7.044-3.722,13.11-1.19,13.11-1.19l7.364,14.251s1.519-5,4.228-3.664C847.814,294.944,854.734,283.924,846.622,278.93Z" transform="translate(-464.997 -204.214)"/><path class="f" d="M534.029,322.019h-.1l-58.054,24.789-79.43,33.917a2.562,2.562,0,0,1-1.962.01l-81.949-34-59.48-24.678-.091-.041h-.1a3.544,3.544,0,0,0-3.54,3.54V479.292a3.544,3.544,0,0,0,3.54,3.54H534.029a3.544,3.544,0,0,0,3.54-3.54V325.559A3.544,3.544,0,0,0,534.029,322.019Z" transform="translate(-248.562 -224.078)"/><path class="g" d="M535.694,262.268a.5.5,0,0,1-.289-.091l-139.856-97.4a2.536,2.536,0,0,0-2.9,0L253.8,262.176a.506.506,0,1,1-.581-.828l138.848-97.394a3.551,3.551,0,0,1,4.056-.007l139.856,97.4a.506.506,0,0,1-.289.921Z" transform="translate(-249.974 -163.315)"/><path class="a" d="M19.063,105.015l132.5-98.2L285.067,112,158.389,187.1,89.614,171.422Z" transform="translate(-7.299 -2.61)"/><path class="h" d="M348.373,533.627H282.915a3.058,3.058,0,1,1-.009-6.116h65.467a3.058,3.058,0,1,1,.009,6.116Z" transform="translate(-260.252 -302.754)"/><path class="h" d="M306.4,512.321H282.915a3.058,3.058,0,0,1-.009-6.116H306.4a3.058,3.058,0,0,1,.009,6.116H306.4Z" transform="translate(-260.252 -294.597)"/><path class="h" d="M433.279,328.627a3.825,3.825,0,0,1-1.451-.284l-81.716-33.907V188.3a3.544,3.544,0,0,1,3.54-3.54H510.418a3.544,3.544,0,0,1,3.54,3.54V294.51l-.154.066-79.031,33.75A3.852,3.852,0,0,1,433.279,328.627Z" transform="translate(-287.152 -171.527)"/><path class="g" d="M532.8,322.019h-.1l-58.054,24.789-79.43,33.917a2.562,2.562,0,0,1-1.962.01l-81.949-34-59.48-24.678-.091-.04h-.1a3.544,3.544,0,0,0-3.54,3.54V479.292a3.544,3.544,0,0,0,3.54,3.54H532.8a3.544,3.544,0,0,0,3.54-3.54V325.559A3.544,3.544,0,0,0,532.8,322.019Zm2.529,157.273a2.53,2.53,0,0,1-2.529,2.529H251.631a2.529,2.529,0,0,1-2.529-2.528V325.559a2.534,2.534,0,0,1,2.432-2.528l59.769,24.8,81.559,33.841a3.6,3.6,0,0,0,2.751-.015l79.03-33.75L532.9,323.03a2.537,2.537,0,0,1,2.427,2.528Z" transform="translate(-248.091 -224.078)"/><path class="f" d="M427.241,244.029H371.613a4.046,4.046,0,0,1,0-8.091H427.24a4.046,4.046,0,1,1,0,8.091Z" transform="translate(-293.835 -191.12)"/><path class="f" d="M398.416,216.168h-26.8a4.046,4.046,0,0,1,0-8.091h26.8a4.046,4.046,0,0,1,0,8.091Z" transform="translate(-293.835 -180.453)"/><path class="f" d="M495.059,309.584H410.1a4.046,4.046,0,0,1,0-8.091h84.958a4.046,4.046,0,0,1,0,8.091Z" transform="translate(-308.571 -216.219)"/><path class="f" d="M495.059,339.9H410.1a4.046,4.046,0,0,1,0-8.091h84.958a4.046,4.046,0,0,1,0,8.091Z" transform="translate(-308.571 -227.827)"/><path class="e" d="M849.831,735.549H687.526a.617.617,0,0,1,0-1.234H849.831a.617.617,0,1,1,0,1.234Z" transform="translate(-416.101 -381.933)"/><path class="e" d="M454.388,735.549H394.526a.617.617,0,1,1,0-1.234h59.862a.617.617,0,1,1,0,1.234Z" transform="translate(-303.921 -381.933)"/><path class="a" d="M427.585,679.921a13.314,13.314,0,0,0,11.228-6.659c2.878-5.126,2-11.451,1.038-17.25l-2.844-17.154-4.925,7.095c-3.542,5.1-7.151,10.35-8.663,16.375s-.5,13.086,4.114,17.246" transform="translate(-314.969 -345.386)"/><path class="b" d="M438.628,714.432c-2.526-4.652-5.094-9.36-6.494-14.5A24.938,24.938,0,0,1,432.014,686a21.749,21.749,0,0,1,3.435-6.7c.4-.526,1.19.12.795.644a20.678,20.678,0,0,0-4.167,12.122,33.107,33.107,0,0,0,3.4,13.978c1.2,2.656,2.59,5.221,3.981,7.783a.527.527,0,0,1-.112.715.514.514,0,0,1-.715-.112Z" transform="translate(-318.151 -360.795)"/></g></svg>