<svg xmlns="http://www.w3.org/2000/svg" width="46" height="46" viewBox="0 0 46 46"><defs><style>.a{fill:#ececec;}.b{fill:#0c66b4;}</style></defs><g transform="translate(21321 24423)"><circle class="a" cx="23" cy="23" r="23" transform="translate(-21321 -24423)"/><g transform="translate(-21311 -24413.012)"><path class="b" d="M23.767,9.25V8.858h1.57V7.848L14.1,1.259a1.867,1.867,0,0,0-1.859,0L1,7.848v1.01H2.57V9.25a1.176,1.176,0,0,0,.785,1.105V21.492a1.175,1.175,0,0,0-.785,1.1v.393H2.178A1.179,1.179,0,0,0,1,24.167v1.178H25.337V24.167a1.179,1.179,0,0,0-1.178-1.178h-.393V22.6a1.176,1.176,0,0,0-.785-1.105V10.356a1.176,1.176,0,0,0,.785-1.105ZM2.169,8.073,12.636,1.937a1.071,1.071,0,0,1,1.065,0L24.168,8.073H22.7L13.169,2.515,3.642,8.073ZM22.59,22.2a.393.393,0,0,1,.393.393v.393h-3.14V22.6a.393.393,0,0,1,.393-.393Zm-1.963-.785V10.428H22.2V21.419Zm-.785.072a1.176,1.176,0,0,0-.785,1.105v.393H17.869a1.942,1.942,0,0,0,.4-1.178V10.035a1.942,1.942,0,0,0-.4-1.178h1.188V9.25a1.176,1.176,0,0,0,.785,1.105ZM16.309,8.073h-1.58a1.942,1.942,0,0,0,.4-1.178,1.963,1.963,0,0,0-3.925,0,1.942,1.942,0,0,0,.4,1.178H5.2l7.969-4.648,7.969,4.648ZM8.851,19.849V11.213h8.636v8.636Zm8.636.785v1.178a1.179,1.179,0,0,1-1.178,1.178H10.028a1.179,1.179,0,0,1-1.178-1.178V20.634ZM8.851,10.428v-.393a1.179,1.179,0,0,1,1.178-1.178h6.281a1.179,1.179,0,0,1,1.178,1.178v.393ZM11.991,6.9a1.178,1.178,0,1,1,1.178,1.178A1.179,1.179,0,0,1,11.991,6.9ZM8.468,22.989H7.281V22.6A1.176,1.176,0,0,0,6.5,21.491V10.356A1.176,1.176,0,0,0,7.281,9.25V8.858H8.468a1.942,1.942,0,0,0-.4,1.178V21.812A1.942,1.942,0,0,0,8.468,22.989ZM3.748,9.643a.393.393,0,0,1-.393-.393V8.858H6.5V9.25a.393.393,0,0,1-.393.393Zm1.963.785V21.419H4.14V10.428ZM3.355,22.6a.393.393,0,0,1,.393-.393H6.1A.393.393,0,0,1,6.5,22.6v.393H3.355Zm20.8,1.178a.393.393,0,0,1,.393.393v.393H1.785v-.393a.393.393,0,0,1,.393-.393H24.16ZM22.59,9.643H20.234a.393.393,0,0,1-.393-.393V8.858h3.14V9.25A.393.393,0,0,1,22.59,9.643Z"/><path class="b" d="M30,53h1.57v.785H30Z" transform="translate(-17.616 -31.581)"/><path class="b" d="M29.57,30.57a.786.786,0,0,1,.785.785h.785a1.569,1.569,0,0,0-1.178-1.514V29h-.785v.785H28v1.57a1.572,1.572,0,0,0,1.57,1.57.786.786,0,0,1,.785.785V34.5H29.57a.786.786,0,0,1-.785-.785H28a1.569,1.569,0,0,0,1.178,1.514v.841h.785v-.785H31.14V33.71a1.572,1.572,0,0,0-1.57-1.57.786.786,0,0,1-.785-.785V30.57Z" transform="translate(-16.401 -17.002)"/><circle class="b" cx="0.393" cy="0.393" r="0.393" transform="translate(15.916 6.503)"/><circle class="b" cx="0.393" cy="0.393" r="0.393" transform="translate(9.636 6.503)"/><path class="b" d="M23,29h.785v.785H23Z" transform="translate(-13.364 -17.002)"/><path class="b" d="M23,33h.785v.785H23Z" transform="translate(-13.364 -19.432)"/><path class="b" d="M23,37h.785v.785H23Z" transform="translate(-13.364 -21.862)"/><path class="b" d="M39,29h.785v.785H39Z" transform="translate(-23.084 -17.002)"/><path class="b" d="M39,33h.785v.785H39Z" transform="translate(-23.084 -19.432)"/><path class="b" d="M39,37h.785v.785H39Z" transform="translate(-23.084 -21.862)"/></g></g></svg>