<svg xmlns="http://www.w3.org/2000/svg" width="24.454" height="24.454" viewBox="0 0 24.454 24.454"><defs><style>.a{fill:none;stroke:#686868;stroke-linecap:round;stroke-linejoin:round;stroke-width:3px;}</style></defs><g transform="translate(-1.5 -1.5)"><path class="a" d="M8.363,3H19.09a5.363,5.363,0,0,1,5.363,5.363V19.09a5.363,5.363,0,0,1-5.363,5.363H8.363A5.363,5.363,0,0,1,3,19.09V8.363A5.363,5.363,0,0,1,8.363,3Z"/><path class="a" d="M20.6,15.6a4.291,4.291,0,1,1-3.615-3.615A4.291,4.291,0,0,1,20.6,15.6Z" transform="translate(-2.582 -2.545)"/><path class="a" d="M26.25,9.75h0" transform="translate(-6.623 -1.923)"/></g></svg>