<svg xmlns="http://www.w3.org/2000/svg" width="26.415" height="21.453" viewBox="0 0 26.415 21.453"><defs><style>.a{fill:#686868;}</style></defs><path class="a" d="M23.7,8.727c.017.235.017.469.017.7a15.3,15.3,0,0,1-15.4,15.4A15.3,15.3,0,0,1,0,22.4a11.2,11.2,0,0,0,1.307.067,10.842,10.842,0,0,0,6.721-2.313A5.423,5.423,0,0,1,2.967,16.4a6.827,6.827,0,0,0,1.022.084A5.726,5.726,0,0,0,5.414,16.3,5.414,5.414,0,0,1,1.073,10.99v-.067a5.452,5.452,0,0,0,2.447.687A5.422,5.422,0,0,1,1.844,4.37a15.388,15.388,0,0,0,11.163,5.665,6.111,6.111,0,0,1-.134-1.24,5.419,5.419,0,0,1,9.369-3.7,10.659,10.659,0,0,0,3.436-1.307A5.4,5.4,0,0,1,23.3,6.766a10.853,10.853,0,0,0,3.117-.838,11.637,11.637,0,0,1-2.715,2.8Z" transform="translate(0 -3.381)"/></svg>